<svg viewBox="0 0 36 24" fill="none" xmlns="http://www.w3.org/2000/svg">
<path d="M0 3C0 1.34315 1.34315 0 3 0H33C34.6569 0 36 1.34315 36 3V21C36 22.6569 34.6569 24 33 24H3C1.34315 24 0 22.6569 0 21V3Z" fill="white"/>
<path fill-rule="evenodd" clip-rule="evenodd" d="M8 22H28V2H8V22Z" fill="#FFFFFE"/>
<path fill-rule="evenodd" clip-rule="evenodd" d="M18.0372 9.24523H16.5178L17.2775 7.41418L18.0372 9.24523ZM19.0366 11.6201H20.7557L18.2851 6.02294H16.318L13.8473 11.6201H15.5264L15.9902 10.5007H18.5648L19.0366 11.6201ZM26.4887 11.6201H28V6.02294H25.6492L24.3937 9.50902L23.1464 6.02294H20.7557V11.6201H22.2669V7.70209L23.7061 11.6201H25.0494L26.4887 7.69399V11.6201ZM17.5179 16.7341V15.8625H20.6761V14.5992H17.5179V13.7276H20.7561V12.4323H15.9907V18.0294H20.7561V16.7341H17.5179ZM26.4629 15.2173L28 16.8524V13.5957L26.4629 15.2173ZM25.9935 18.0294H28L25.3458 15.2149L28 12.4323H26.0255L24.3865 14.2234L22.7631 12.4323H20.7562L23.3948 15.2309L20.7562 18.0294H22.7073L24.3544 16.2224L25.9935 18.0294ZM28 22V18.8309H25.5872L24.3449 17.4573L23.0963 18.8309H15.141V12.429H12.5734L15.7583 5.22137H18.8298L19.9262 7.69059V5.22137H23.7282L24.3884 7.08209L25.0528 5.22137H28V2H8V22H28Z" fill="#006FAC"/>
<path fill-rule="evenodd" clip-rule="evenodd" d="M33 1H3C1.89543 1 1 1.89543 1 3V21C1 22.1046 1.89543 23 3 23H33C34.1046 23 35 22.1046 35 21V3C35 1.89543 34.1046 1 33 1ZM3 0C1.34315 0 0 1.34315 0 3V21C0 22.6569 1.34315 24 3 24H33C34.6569 24 36 22.6569 36 21V3C36 1.34315 34.6569 0 33 0H3Z" fill="#DDDDDD"/>
</svg>
