<svg xmlns="http://www.w3.org/2000/svg" xmlns:xlink="http://www.w3.org/1999/xlink" viewBox="0 0 36 24"><defs><style>.cls-1{fill:url(#linear-gradient);}.cls-2{fill:#fff;}</style><linearGradient id="linear-gradient" x1="18" x2="18" y2="24" gradientUnits="userSpaceOnUse"><stop offset="0" stop-color="#1a1f46"/><stop offset="0.35151" stop-color="#1a1f46"/><stop offset="0.47107" stop-color="#2b4a83"/><stop offset="0.55152" stop-color="#3564a8"/><stop offset="0.60816" stop-color="#3464a4"/><stop offset="0.66204" stop-color="#326499"/><stop offset="0.71482" stop-color="#2f6386"/><stop offset="0.76693" stop-color="#2a636b"/><stop offset="0.81806" stop-color="#246248"/><stop offset="0.84849" stop-color="#206230"/><stop offset="1" stop-color="#206230"/></linearGradient></defs><title>cartebleue</title><g id="Layer_2" data-name="Layer 2"><g id="Layer_1-2" data-name="Layer 1"><rect class="cls-1" width="36" height="24" rx="3" ry="3"/><path class="cls-2" d="M11.26987,11.49242h7.36647A5.30246,5.30246,0,0,0,17.0743,7.57377C15.73388,6.42587,13.38649,6,11.28875,6c-2.18386,0-4.59855.46735-5.94587,1.69892A5.69356,5.69356,0,0,0,3.92952,12,6.05777,6.05777,0,0,0,5.6819,16.55144C7.02229,17.69618,9.19423,18,11.28875,18c2.03481,0,4.23883-.34279,5.571-1.43033A5.82569,5.82569,0,0,0,18.64768,12V11.9925H11.26987Z"/><path class="cls-2" d="M19.13075,11.9925v5.73956H29.37837v-.00754a2.832,2.832,0,0,0,2.69211-2.82737A2.906,2.906,0,0,0,29.37837,11.99v.00251Z"/><path class="cls-2" d="M31.883,8.86131a2.60356,2.60356,0,0,0-2.62171-2.621c-.10061,0-.22517-.01887-.32327-.00818H19.13075v5.26029H29.46262A2.64384,2.64384,0,0,0,31.883,8.86131Z"/></g></g></svg>