<svg xmlns="http://www.w3.org/2000/svg" viewBox="0 0 36 24"><defs><style>.cls-1{fill:#fff;}.cls-2{fill:#ff5f00;}.cls-3{fill:#eb001b;}.cls-4{fill:#f79e1b;}.cls-5{fill:#ddd;}</style></defs><title>mastercard</title><g id="Layer_2" data-name="Layer 2"><g id="Layer_1-2" data-name="Layer 1"><rect class="cls-1" x="1" y="1" width="34" height="22" rx="2" ry="2"/><path id="_Compound_Path_" data-name="&lt;Compound Path&gt;" d="M12.272,18.943v-.927a.55.55,0,0,0-.581-.587.572.572,0,0,0-.519.263.543.543,0,0,0-.488-.263.488.488,0,0,0-.433.219v-.182H9.93v1.477h.324v-.819a.345.345,0,0,1,.362-.392c.213,0,.321.139.321.389v.822h.324v-.819a.348.348,0,0,1,.362-.392c.219,0,.324.139.324.389v.822Zm4.8-1.477h-.525v-.448h-.324v.448h-.3v.294h.3v.674c0,.343.133.547.513.547a.755.755,0,0,0,.4-.114l-.093-.275a.593.593,0,0,1-.284.083c-.161,0-.213-.1-.213-.247v-.667h.525Zm2.741-.037a.436.436,0,0,0-.389.216v-.179h-.318v1.477h.321v-.828c0-.244.105-.38.315-.38a.524.524,0,0,1,.2.037l.1-.3a.687.687,0,0,0-.229-.04Zm-4.144.154a1.1,1.1,0,0,0-.6-.154c-.374,0-.615.179-.615.473,0,.241.179.389.51.436l.151.022c.176.025.26.071.26.154,0,.114-.117.179-.337.179a.787.787,0,0,1-.491-.155l-.151.25a1.066,1.066,0,0,0,.64.192c.426,0,.674-.2.674-.482,0-.26-.195-.4-.516-.442l-.151-.022c-.139-.019-.25-.046-.25-.145s.105-.173.281-.173a.952.952,0,0,1,.46.127Zm8.609-.154a.436.436,0,0,0-.389.216v-.179h-.318v1.477h.321v-.828c0-.244.105-.38.315-.38a.524.524,0,0,1,.2.037l.1-.3a.687.687,0,0,0-.229-.04Zm-4.141.776a.746.746,0,0,0,.788.776.774.774,0,0,0,.531-.176l-.154-.26a.649.649,0,0,1-.386.133.474.474,0,0,1,0-.946.649.649,0,0,1,.386.133l.154-.26a.774.774,0,0,0-.531-.176.746.746,0,0,0-.788.776Zm3.01,0v-.738h-.321v.179a.56.56,0,0,0-.467-.216.777.777,0,0,0,0,1.551.56.56,0,0,0,.467-.216v.179h.321Zm-1.2,0a.447.447,0,1,1,.448.473.443.443,0,0,1-.448-.473Zm-3.878-.776A.776.776,0,0,0,18.1,18.98a.9.9,0,0,0,.606-.207l-.158-.238a.7.7,0,0,1-.43.154.41.41,0,0,1-.442-.362h1.1c0-.04.006-.08.006-.124a.708.708,0,0,0-.7-.776Zm-.006.287a.367.367,0,0,1,.374.358h-.766a.38.38,0,0,1,.392-.358Zm8.062.488V16.872h-.321v.772a.56.56,0,0,0-.467-.216.777.777,0,0,0,0,1.551.56.56,0,0,0,.467-.216v.179h.321Zm-1.2,0a.447.447,0,1,1,.448.473.443.443,0,0,1-.448-.473Zm-10.852,0v-.738h-.321v.179a.56.56,0,0,0-.467-.216.777.777,0,0,0,0,1.551.56.56,0,0,0,.467-.216v.179h.321Zm-1.2,0a.447.447,0,1,1,.448.473A.443.443,0,0,1,12.887,18.2Z"/><g id="_Group_" data-name="&lt;Group&gt;"><rect class="cls-2" x="15.564" y="6.209" width="4.867" height="8.747"/><path id="_Path_" data-name="&lt;Path&gt;" class="cls-3" d="M15.873,10.583A5.553,5.553,0,0,1,18,6.209a5.563,5.563,0,1,0,0,8.747A5.553,5.553,0,0,1,15.873,10.583Z"/><path class="cls-4" d="M27,10.583a5.562,5.562,0,0,1-9,4.373,5.563,5.563,0,0,0,0-8.747,5.562,5.562,0,0,1,9,4.373Z"/></g><path class="cls-5" d="M33,1a2,2,0,0,1,2,2V21a2,2,0,0,1-2,2H3a2,2,0,0,1-2-2V3A2,2,0,0,1,3,1H33m0-1H3A3.009,3.009,0,0,0,0,3V21a3.009,3.009,0,0,0,3,3H33a3.009,3.009,0,0,0,3-3V3a3.009,3.009,0,0,0-3-3Z"/></g></g></svg>