 <svg id="Layer_1" xmlns="http://www.w3.org/2000/svg" viewBox="0 0 36 24"><style>.st2{fill:#253b80}.st3{fill:#179bd7}</style><g id="Layer_2_1_"><g id="Layer_1-2"><path d="M3 1h30c1.1 0 2 .9 2 2v18c0 1.1-.9 2-2 2H3c-1.1 0-2-.9-2-2V3c0-1.1.9-2 2-2z" fill="#fff"/><path d="M33 1c1.1 0 2 .9 2 2v18c0 1.1-.9 2-2 2H3c-1.1 0-2-.9-2-2V3c0-1.1.9-2 2-2h30m0-1H3C1.3 0 0 1.3 0 3v18c0 1.7 1.3 3 3 3h30c1.7 0 3-1.3 3-3V3c0-1.7-1.3-3-3-3z" fill="#ddd"/></g></g><path class="st2" d="M13.9 10.1h-1.6c-.1 0-.2.1-.2.2l-.6 4c0 .1 0 .2.1.2h.7c.1 0 .2-.1.2-.2l.2-1.1c0-.1.1-.2.2-.2h.5c1 0 1.6-.5 1.8-1.5.1-.4 0-.8-.2-1-.1-.3-.5-.4-1.1-.4zm.2 1.5c-.1.6-.5.6-.9.6H13l.2-1c0-.1.1-.1.1-.1h.1c.3 0 .5 0 .7.2 0-.1.1.1 0 .3zM18.6 11.5h-.7c-.1 0-.1 0-.1.1v.2l-.1-.1c-.2-.2-.5-.3-.9-.3-.8 0-1.5.6-1.7 1.5-.1.4 0 .9.3 1.1.2.3.6.4.9.4.7 0 1-.4 1-.4v.2c0 .1 0 .2.1.2h.7c.1 0 .2-.1.2-.2l.4-2.6s0-.1-.1-.1zm-1 1.5c-.1.4-.4.7-.8.7-.2 0-.4-.1-.5-.2-.1-.1-.2-.3-.1-.5.1-.4.4-.7.8-.7.2 0 .4.1.5.2.1.1.1.3.1.5zM22.6 11.5h-.8c-.1 0-.1 0-.2.1l-1 1.5-.4-1.5c0-.1-.1-.2-.2-.2h-.7c-.1 0-.2.1-.1.2L20 14l-.8 1.1c-.1.1 0 .2.1.2h.7c.1 0 .1 0 .2-.1l2.5-3.6c.1.1 0-.1-.1-.1z"/><path class="st3" d="M25.1 10.1h-1.6c-.1 0-.2.1-.2.2l-.6 4c0 .1 0 .2.1.2h.8c.1 0 .1-.1.1-.1l.2-1.1c0-.1.1-.2.2-.2h.5c1 0 1.6-.5 1.8-1.5.1-.4 0-.8-.2-1-.2-.4-.6-.5-1.1-.5zm.1 1.5c-.1.6-.5.6-.9.6h-.2l.2-1c0-.1.1-.1.1-.1h.1c.3 0 .5 0 .7.2.1-.1.1.1 0 .3zM29.7 11.5H29c-.1 0-.1 0-.1.1v.2l-.1-.1c-.2-.2-.5-.3-.9-.3-.8 0-1.5.6-1.7 1.5-.1.4 0 .9.3 1.1.2.3.6.4.9.4.7 0 1-.4 1-.4v.2c0 .1 0 .2.1.2h.7c.1 0 .2-.1.2-.2l.4-2.6c.1 0 0-.1-.1-.1zm-1 1.5c-.1.4-.4.7-.8.7-.2 0-.4-.1-.5-.2-.1-.1-.2-.3-.1-.5.1-.4.4-.7.8-.7.2 0 .4.1.5.2.1.1.1.3.1.5zM30.6 10.2l-.6 4.1c0 .1 0 .2.1.2h.6c.1 0 .2-.1.2-.2l.6-4c0-.1 0-.2-.1-.2h-.7s-.1 0-.1.1z"/><path class="st2" d="M5.1 15.2l.1-.8H3.6l.9-5.6h2.1c.7 0 1.2.1 1.5.4.1.1.2.3.2.4v.8l.1.1c.1.1.2.1.2.2.3.1.4.3.4.4v.6c-.1.3-.1.5-.3.7-.1.2-.2.3-.4.5-.2.1-.3.2-.6.3-.2.1-.4.1-.7.1h-.1c-.1 0-.2 0-.3.1-.1.1-.2.2-.2.3v.1l-.2 1.3c-.1.1-1.1.1-1.1.1z"/><path class="st3" d="M8.7 10.3v.1c-.3 1.4-1.2 1.9-2.5 1.9h-.7c-.2 0-.3.1-.3.3l-.3 2-.1.6c0 .1.1.2.2.2h1.1c.1 0 .2-.1.3-.2v-.1l.2-1.3v-.1c0-.1.1-.2.3-.2H7c1.1 0 1.9-.4 2.2-1.7.1-.5 0-1-.2-1.3-.1-.1-.2-.1-.3-.2z"/><path d="M8.4 10.2h-.1-2.4-.1c-.1 0-.1.1-.1.2l-.4 2.3v.1c0-.1.2-.3.3-.3h.6c1.2 0 2.2-.5 2.5-1.9v-.1c-.1-.2-.2-.3-.3-.3z" fill="#222d65"/><path class="st2" d="M5.6 10.3c0-.1.1-.2.1-.2h2.7c.1 0 .2.1.2.1.1-.5 0-.9-.3-1.2-.2-.3-.8-.4-1.6-.4H4.6c-.2 0-.3.1-.3.3l-.9 5.6c0 .1.1.2.2.2h1.3l.3-2.1.4-2.3z"/></svg>
