<svg viewBox="0 0 36 24" fill="none" xmlns="http://www.w3.org/2000/svg">
<path d="M0 3C0 1.34315 1.34315 0 3 0H33C34.6569 0 36 1.34315 36 3V21C36 22.6569 34.6569 24 33 24H3C1.34315 24 0 22.6569 0 21V3Z" fill="white"/>
<path fill-rule="evenodd" clip-rule="evenodd" d="M17.8933 8.56569L16.423 15.4375H14.6455L16.1158 8.56569H17.8933ZM25.3723 13.0029L26.3083 10.4223L26.8469 13.0029H25.3723ZM27.3557 15.4375H29L27.5652 8.56569H26.0473C25.7064 8.56569 25.4186 8.7641 25.2907 9.06985L22.6237 15.4375H24.4902L24.8609 14.4114H27.1416L27.3557 15.4375ZM22.7164 13.1939C22.7239 11.3802 20.2079 11.2802 20.2255 10.47C20.2307 10.2234 20.4656 9.96136 20.9793 9.89424C21.2344 9.86094 21.9359 9.83537 22.7323 10.2019L23.0442 8.74474C22.6165 8.58932 22.0659 8.44 21.3814 8.44C19.6244 8.44 18.3875 9.37419 18.3772 10.7118C18.3661 11.701 19.2599 12.2528 19.9337 12.5818C20.626 12.9187 20.8588 13.1345 20.8558 13.4356C20.8512 13.897 20.3033 14.1002 19.7922 14.1083C18.8982 14.1224 18.3796 13.867 17.9661 13.6743L17.6439 15.1799C18.0593 15.3708 18.8258 15.5365 19.6212 15.5451C21.4884 15.5451 22.7102 14.6223 22.7164 13.1939ZM15.3531 8.56569L12.4729 15.4375H10.5935L9.17637 9.95332C9.0902 9.61547 9.01544 9.49193 8.75358 9.34964C8.32682 9.11783 7.62099 8.90027 7 8.76532L7.04247 8.56569H10.0672C10.4527 8.56569 10.7995 8.82225 10.887 9.26622L11.6356 13.243L13.4855 8.56569H15.3531Z" fill="#182E66"/>
<path fill-rule="evenodd" clip-rule="evenodd" d="M33 1H3C1.89543 1 1 1.89543 1 3V21C1 22.1046 1.89543 23 3 23H33C34.1046 23 35 22.1046 35 21V3C35 1.89543 34.1046 1 33 1ZM3 0C1.34315 0 0 1.34315 0 3V21C0 22.6569 1.34315 24 3 24H33C34.6569 24 36 22.6569 36 21V3C36 1.34315 34.6569 0 33 0H3Z" fill="#DDDDDD"/>
</svg>
